# xmcd CD database file
#
# Track frame offsets:
#	150
#	48778
#	82579
#	119904
#	174847
#	213417
#	250531
#	284547
#
# Disc length: 4093 seconds
#
# Revision: 0
# Processed by: cddbd v1.5.2PL0 Copyright (c) Steve Scherf et al.
# Submitted via: CDex 1.70beta2
#
DISCID=630ffb08
DTITLE=Jonas Knutsson and Mats Öberg - Live
DYEAR=2008
DGENRE=Jazz
TTITLE0=Fluortanten
TTITLE1=Vaggvisa för Bim, Cornelis och alla andra människor på Jorden
TTITLE2=Sälg Funk!
TTITLE3=Hjälmaren - Hjortron från Mars - Biggan
TTITLE4=Milos Vaggsång
TTITLE5=Jagad i Hissen
TTITLE6=Tokpolskan
TTITLE7=In a Silent Way
EXTD=YEAR: 2008
EXTT0=
EXTT1=
EXTT2=
EXTT3=
EXTT4=
EXTT5=
EXTT6=
EXTT7=
PLAYORDER=
